<svg xmlns="http://www.w3.org/2000/svg" xmlns:xlink="http://www.w3.org/1999/xlink" width="500" zoomAndPan="magnify" viewBox="0 0 375 374.999991" height="500" preserveAspectRatio="xMidYMid meet" version="1.2"><defs><clipPath id="3de63d059e"><path d="M 15.667969 106 L 359.167969 106 L 359.167969 359.167969 L 15.667969 359.167969 Z M 15.667969 106 "/></clipPath><clipPath id="beb4bae98a"><path d="M 62 15.667969 L 313 15.667969 L 313 297 L 62 297 Z M 62 15.667969 "/></clipPath></defs><g id="619a0008fb"><g clip-rule="nonzero" clip-path="url(#3de63d059e)"><path style=" stroke:none;fill-rule:nonzero;fill:#34afcb;fill-opacity:1;" d="M 337.582031 106.035156 L 322.835938 106.035156 L 322.835938 116.761719 L 337.582031 116.761719 C 343.480469 116.761719 348.308594 121.589844 348.308594 127.488281 L 348.308594 306.878906 L 26.527344 306.878906 L 26.527344 127.488281 C 26.527344 121.589844 31.355469 116.761719 37.253906 116.761719 L 52.003906 116.761719 L 52.003906 106.035156 L 37.253906 106.035156 C 25.457031 106.035156 15.804688 115.6875 15.804688 127.488281 L 15.804688 320.285156 C 15.804688 332.085938 25.457031 341.738281 37.253906 341.738281 L 149.878906 341.738281 L 149.878906 348.441406 L 136.46875 348.441406 C 133.519531 348.441406 131.105469 350.855469 131.105469 353.804688 C 131.105469 356.753906 133.519531 359.167969 136.46875 359.167969 L 233.003906 359.167969 C 235.953125 359.167969 238.367188 356.753906 238.367188 353.804688 C 238.367188 350.855469 235.953125 348.441406 233.003906 348.441406 L 219.597656 348.441406 L 219.597656 341.738281 L 337.582031 341.738281 C 349.382812 341.738281 359.035156 332.085938 359.035156 320.285156 L 359.035156 127.488281 C 359.035156 115.6875 349.382812 106.035156 337.582031 106.035156 Z M 208.871094 348.175781 L 160.605469 348.175781 L 160.605469 341.472656 L 208.871094 341.472656 Z M 208.871094 348.175781 "/></g><path style=" stroke:none;fill-rule:nonzero;fill:#34afcb;fill-opacity:1;" d="M 187.417969 106.839844 C 168.917969 106.839844 153.898438 119.980469 150.683594 137.410156 L 224.15625 137.410156 C 220.9375 119.980469 205.921875 106.839844 187.417969 106.839844 Z M 187.417969 106.839844 "/><path style=" stroke:none;fill-rule:nonzero;fill:#34afcb;fill-opacity:1;" d="M 200.828125 61.253906 C 200.828125 62.132812 200.742188 63.007812 200.570312 63.871094 C 200.398438 64.734375 200.144531 65.570312 199.804688 66.386719 C 199.46875 67.199219 199.054688 67.972656 198.566406 68.703125 C 198.078125 69.433594 197.523438 70.113281 196.898438 70.734375 C 196.277344 71.355469 195.597656 71.914062 194.867188 72.402344 C 194.136719 72.890625 193.363281 73.304688 192.550781 73.640625 C 191.734375 73.976562 190.898438 74.234375 190.035156 74.402344 C 189.171875 74.574219 188.300781 74.660156 187.417969 74.660156 C 186.539062 74.660156 185.667969 74.574219 184.804688 74.402344 C 183.941406 74.234375 183.101562 73.976562 182.289062 73.640625 C 181.476562 73.304688 180.703125 72.890625 179.96875 72.402344 C 179.238281 71.914062 178.5625 71.355469 177.9375 70.734375 C 177.316406 70.113281 176.761719 69.433594 176.269531 68.703125 C 175.78125 67.972656 175.367188 67.199219 175.03125 66.386719 C 174.695312 65.570312 174.441406 64.734375 174.269531 63.871094 C 174.097656 63.007812 174.011719 62.132812 174.011719 61.253906 C 174.011719 60.375 174.097656 59.503906 174.269531 58.636719 C 174.441406 57.773438 174.695312 56.9375 175.03125 56.125 C 175.367188 55.308594 175.78125 54.539062 176.269531 53.804688 C 176.761719 53.074219 177.316406 52.394531 177.9375 51.773438 C 178.5625 51.152344 179.238281 50.59375 179.96875 50.105469 C 180.703125 49.617188 181.476562 49.203125 182.289062 48.867188 C 183.101562 48.53125 183.941406 48.277344 184.804688 48.105469 C 185.667969 47.933594 186.539062 47.847656 187.417969 47.847656 C 188.300781 47.847656 189.171875 47.933594 190.035156 48.105469 C 190.898438 48.277344 191.734375 48.53125 192.550781 48.867188 C 193.363281 49.203125 194.136719 49.617188 194.867188 50.105469 C 195.597656 50.59375 196.277344 51.152344 196.898438 51.773438 C 197.523438 52.394531 198.078125 53.074219 198.566406 53.804688 C 199.054688 54.539062 199.46875 55.308594 199.804688 56.125 C 200.144531 56.9375 200.398438 57.773438 200.570312 58.636719 C 200.742188 59.503906 200.828125 60.375 200.828125 61.253906 Z M 200.828125 61.253906 "/><g clip-rule="nonzero" clip-path="url(#beb4bae98a)"><path style=" stroke:none;fill-rule:nonzero;fill:#34afcb;fill-opacity:1;" d="M 62.730469 21.03125 L 62.730469 291.328125 C 62.730469 294.277344 65.140625 296.691406 68.09375 296.691406 L 306.746094 296.691406 C 309.695312 296.691406 312.109375 294.277344 312.109375 291.328125 L 312.109375 21.03125 C 312.109375 18.082031 309.695312 15.667969 306.746094 15.667969 L 68.09375 15.667969 C 65.140625 15.667969 62.730469 18.082031 62.730469 21.03125 Z M 222.277344 261.832031 L 168.648438 261.832031 C 165.699219 261.832031 163.285156 259.417969 163.285156 256.46875 C 163.285156 253.519531 165.699219 251.105469 168.648438 251.105469 L 222.277344 251.105469 C 225.226562 251.105469 227.640625 253.519531 227.640625 256.46875 C 227.640625 259.417969 225.226562 261.832031 222.277344 261.832031 Z M 265.183594 240.378906 L 168.648438 240.378906 C 165.699219 240.378906 163.285156 237.964844 163.285156 235.015625 C 163.285156 232.066406 165.699219 229.652344 168.648438 229.652344 L 265.183594 229.652344 C 268.132812 229.652344 270.546875 232.066406 270.546875 235.015625 C 270.546875 237.964844 268.132812 240.378906 265.183594 240.378906 Z M 163.285156 192.378906 C 163.285156 189.429688 165.699219 187.015625 168.648438 187.015625 L 222.277344 187.015625 C 225.226562 187.015625 227.640625 189.429688 227.640625 192.378906 C 227.640625 195.328125 225.226562 197.742188 222.277344 197.742188 L 168.648438 197.742188 C 165.699219 197.742188 163.285156 195.328125 163.285156 192.378906 Z M 270.546875 170.925781 C 270.546875 173.878906 268.132812 176.289062 265.183594 176.289062 L 168.648438 176.289062 C 165.699219 176.289062 163.285156 173.878906 163.285156 170.925781 C 163.285156 167.976562 165.699219 165.566406 168.648438 165.566406 L 265.183594 165.566406 C 268.132812 165.566406 270.546875 167.976562 270.546875 170.925781 Z M 187.417969 37.121094 C 200.828125 37.121094 211.550781 47.847656 211.550781 61.253906 C 211.550781 74.660156 200.828125 85.386719 187.417969 85.386719 C 174.011719 85.386719 163.285156 74.660156 163.285156 61.253906 C 163.285156 47.847656 174.011719 37.121094 187.417969 37.121094 Z M 187.417969 96.113281 C 213.429688 96.113281 234.613281 116.492188 235.417969 142.503906 C 235.417969 143.84375 234.882812 145.453125 233.808594 146.527344 C 232.734375 147.597656 231.394531 148.136719 230.054688 148.136719 L 144.78125 148.136719 C 143.441406 148.136719 141.832031 147.597656 141.027344 146.527344 C 139.957031 145.453125 139.421875 144.113281 139.421875 142.503906 C 140.222656 116.492188 161.410156 96.113281 187.417969 96.113281 Z M 82.839844 162.882812 C 82.839844 159.933594 85.253906 157.519531 88.203125 157.519531 L 147.195312 157.519531 C 150.144531 157.519531 152.558594 159.933594 152.558594 162.882812 L 152.558594 205.785156 C 152.558594 208.738281 150.144531 211.148438 147.195312 211.148438 L 88.203125 211.148438 C 85.253906 211.148438 82.839844 208.738281 82.839844 205.785156 Z M 82.839844 226.972656 C 82.839844 224.019531 85.253906 221.609375 88.203125 221.609375 L 147.195312 221.609375 C 150.144531 221.609375 152.558594 224.019531 152.558594 226.972656 L 152.558594 269.875 C 152.558594 272.824219 150.144531 275.238281 147.195312 275.238281 L 88.203125 275.238281 C 85.253906 275.238281 82.839844 272.824219 82.839844 269.875 Z M 82.839844 226.972656 "/></g></g></svg>